<?xml version="1.0" encoding="UTF-8" standalone="no"?>
<svg
   xmlns:dc="http://purl.org/dc/elements/1.1/"
   xmlns:cc="http://creativecommons.org/ns#"
   xmlns:rdf="http://www.w3.org/1999/02/22-rdf-syntax-ns#"
   xmlns:svg="http://www.w3.org/2000/svg"
   xmlns="http://www.w3.org/2000/svg"
   viewBox="0 0 238.66667 350.66666"
   height="350.66666"
   width="238.66667"
   xml:space="preserve"
   id="svg2"
   version="1.1"><metadata
     id="metadata8"><rdf:RDF><cc:Work
         rdf:about=""><dc:format>image/svg+xml</dc:format><dc:type
           rdf:resource="http://purl.org/dc/dcmitype/StillImage" /></cc:Work></rdf:RDF></metadata><defs
     id="defs6" /><g
     transform="matrix(1.3333333,0,0,-1.3333333,0,350.66667)"
     id="g10"><g
       transform="translate(0,-0.473633)"
       id="g12"><path
         id="path14"
         style="fill:#e0411b;fill-opacity:1;fill-rule:nonzero;stroke:none"
         d="M 169.9548,263.47363 H 9.521277 C 4.284575,263.47363 0,259.20877 0,253.99615 V 9.951126 C 0,6.160126 1.904256,2.843018 5.236703,1.421387 6.664895,0.94751 7.617022,0.473633 9.045214,0.473633 c 2.380318,0 4.284574,0.947754 6.18883,2.369385 L 87.119682,63.498856 163.76598,2.843018 c 2.85638,-2.369385 6.66488,-2.843262 9.99733,-0.947754 3.33245,1.421631 5.2367,4.738739 5.2367,8.529724 V 253.99615 c 0,5.21262 -4.28457,9.47748 -9.52128,9.47748 z" /></g><g
       transform="translate(67.601562,82.927734)"
       id="g16"><path
         id="path18"
         style="fill:#ffffff;fill-opacity:1;fill-rule:nonzero;stroke:none"
         d="M 32.848408,5e-5 H 11.425534 C 5.236705,5e-5 0,5.212669 0,11.373028 v 21.324314 c 0,6.160358 5.236705,11.37297 11.425534,11.37297 h 21.422874 c 6.188827,0 11.425529,-5.212612 11.425529,-11.37297 V 11.373028 C 44.273937,5.212669 39.037235,5e-5 32.848408,5e-5 Z M 10.949469,37.909958 c -2.856383,0 -5.236704,-2.369373 -5.236704,-5.212616 V 11.373028 c 0,-2.843243 2.380321,-5.212624 5.236704,-5.212624 h 21.422872 c 2.856384,0 5.236702,2.369381 5.236702,5.212624 v 21.324314 c 0,2.843243 -2.380318,5.212616 -5.236702,5.212616 z" /></g><g
       transform="translate(67.601562,196.65723)"
       id="g20"><path
         id="path22"
         style="fill:#ffffff;fill-opacity:1;fill-rule:nonzero;stroke:none"
         d="M 32.848408,4.2e-5 H 11.425534 C 5.236705,4.2e-5 0,5.212654 0,11.373013 v 21.324329 c 0,6.160358 5.236705,11.37297 11.425534,11.37297 h 21.422874 c 6.188827,0 11.425529,-5.212612 11.425529,-11.37297 V 11.373013 C 44.273937,5.212654 39.037235,4.2e-5 32.848408,4.2e-5 Z M 10.949469,37.90995 c -2.856383,0 -5.236704,-2.369369 -5.236704,-5.212608 V 11.373013 c 0,-2.843243 2.380321,-5.212609 5.236704,-5.212609 h 21.422872 c 2.856384,0 5.236702,2.369366 5.236702,5.212609 v 21.324329 c 0,2.843239 -2.380318,5.212608 -5.236702,5.212608 z" /></g><g
       transform="translate(110.92188,158.74805)"
       id="g24"><path
         id="path26"
         style="fill:#ffffff;fill-opacity:1;fill-rule:nonzero;stroke:none"
         d="m 28.087776,35.066658 c -1.904257,1.895496 -5.712768,1.895496 -7.617023,0 L 0,14.690086 c 0.476064,-1.421621 0.952131,-2.84324 0.952131,-4.264862 V 0.473869 l 27.135645,27.010807 c 1.904255,1.895497 1.904255,5.686489 0,7.581982 z" /></g><g
       transform="translate(63.316406,135.52832)"
       id="g28"><path
         id="path30"
         style="fill:#ffffff;fill-opacity:1;fill-rule:nonzero;stroke:none"
         d="M 27.135639,10.425282 7.617019,29.854115 c -1.904255,1.895496 -1.904255,5.686489 0,7.581985 1.904256,1.895496 5.712768,1.895496 7.617024,0 L 30.944147,21.798264 47.606384,38.38385 c -1.904258,5.686485 -7.140957,9.477478 -13.329788,9.477478 H 13.805855 C 6.188833,47.861328 0,41.700958 0,34.118977 V 13.742405 C 0,6.160419 6.188833,6.1e-5 13.805855,6.1e-5 h 20.470741 c 7.617024,0 13.805851,6.160358 13.805851,13.742344 V 24.167633 L 34.276596,10.425282 c -1.904255,-1.895497 -5.712767,-1.895497 -7.617021,0 z" /></g></g></svg>