<svg width="180" height="263" viewBox="0 0 180 263" fill="none" xmlns="http://www.w3.org/2000/svg">
<path d="M170.904 0H9.57447C4.30851 0 0 4.26486 0 9.47748V253.523C0 257.314 1.91489 260.631 5.26596 262.052C6.70213 262.526 7.65957 263 9.09575 263C11.4894 263 13.4043 262.052 15.3191 260.631L87.6064 199.975L164.681 260.631C167.553 263 171.383 263.474 174.734 261.578C178.085 260.157 180 256.84 180 253.049V9.47748C180 4.26486 175.691 0 170.426 0H170.904Z" fill="#E0411B"/>
<path d="M145.053 177.702C140.744 177.702 136.436 177.702 132.127 176.281C125.904 175.333 121.595 170.594 120.159 164.434C118.723 155.904 118.723 147.848 120.159 139.318C121.117 133.158 125.904 128.893 132.127 127.471C140.266 126.05 149.361 126.05 157.5 127.471C163.723 128.419 168.51 133.158 169.468 139.318C170.904 147.848 170.904 155.904 169.468 164.434C168.51 170.594 163.723 174.859 157.5 176.281C153.191 177.228 149.361 177.702 144.574 177.702H145.053ZM145.053 129.367C140.744 129.367 136.914 129.367 132.606 130.315C127.819 131.262 123.989 135.053 123.032 139.792C121.595 147.848 121.595 155.904 123.032 163.96C123.989 168.699 127.819 172.49 132.606 173.437C136.436 174.385 140.744 174.859 145.053 174.859C149.361 174.859 153.191 174.859 157.021 173.911C161.808 172.963 165.638 169.172 166.595 164.434C168.031 156.378 168.031 148.322 166.595 140.266C165.638 135.527 161.808 131.736 157.021 130.789C153.191 129.841 148.883 129.841 145.053 129.841V129.367Z" fill="white"/>
<path d="M73.2443 38.3835C71.8081 31.7492 66.5422 26.5366 59.8401 25.115C54.5741 24.1672 49.7869 23.6934 44.5209 23.6934C39.2549 23.6934 33.989 23.6934 29.2018 25.115C22.4996 26.5366 17.2337 31.7492 15.7975 38.3835C13.8826 48.3348 13.8826 58.76 15.7975 68.7114C17.2337 75.3456 22.4996 80.5582 29.2018 81.9798C34.4677 82.9276 39.2549 83.4015 44.5209 83.4015C49.7869 83.4015 54.5741 83.4015 59.8401 81.9798C66.5422 80.5582 71.8081 75.3456 73.2443 68.7114C75.1592 58.76 75.1592 48.3348 73.2443 38.3835ZM57.9252 45.0177C57.9252 45.9654 56.9677 46.4393 56.489 46.4393H53.1379C51.7018 50.2303 49.7869 54.0213 46.9145 57.3384L50.2656 60.6555C50.2656 60.6555 50.7443 61.6033 50.2656 62.551C50.2656 63.4988 48.3507 63.9726 47.3932 63.0249L44.0422 59.7078L36.8613 66.8159C36.3826 67.2898 34.9464 67.2898 34.4677 66.8159C33.989 66.342 33.989 64.9204 34.4677 64.4465L41.6486 57.3384C40.2124 55.9168 38.7762 54.0213 37.8188 52.1258C37.3401 51.178 37.8188 49.7564 39.2549 49.7564C40.6911 49.7564 40.2124 49.7564 40.6911 50.7042C41.6486 52.5997 42.606 54.0213 44.0422 55.4429C46.4358 52.5997 48.3507 49.7564 49.3081 46.4393H32.5528C31.5954 46.4393 31.1166 45.4916 31.1166 45.0177C31.1166 44.5438 32.0741 43.5961 32.5528 43.5961H42.606V42.1744C42.606 41.2267 43.5635 40.7528 44.0422 40.7528C44.5209 40.7528 45.4784 41.7006 45.4784 42.1744V43.5961H55.5315C56.489 43.5961 56.9677 44.5438 56.9677 45.0177H57.9252Z" fill="white"/>
<path d="M145.052 137.423C143.616 137.423 142.659 138.371 142.18 139.318L134.52 159.221C134.042 160.643 134.52 161.59 136.435 161.59C138.35 161.59 137.871 161.117 138.35 160.169L140.265 155.43H149.839L151.754 160.169C151.754 161.117 152.712 161.59 153.669 161.59C155.105 161.59 156.063 160.169 155.584 159.221L147.925 139.318C147.925 138.371 146.488 137.423 145.052 137.423ZM141.701 151.639L145.052 142.635L148.403 151.639H141.701Z" fill="white"/>
<path d="M71.8086 53.5479H72.2873C83.7767 53.5479 93.3511 62.5515 93.3511 74.3983V131.263C93.3511 142.636 102.447 152.114 114.415 152.114H121.117" stroke="white" stroke-miterlimit="10"/>
<path d="M64.6281 37.9102H21.543V71.0813H64.6281V37.9102Z" fill="white"/>
<path d="M62.234 42.1748H49.7872V40.2793C49.7872 39.3315 48.8297 38.3838 47.8723 38.3838C46.9149 38.3838 45.9574 39.3315 45.9574 40.2793V42.1748H33.5106C32.5532 42.1748 31.5957 43.1225 31.5957 44.0703C31.5957 45.018 32.5532 45.9658 33.5106 45.9658H54.5744C53.1383 49.7568 51.2234 53.5478 47.8723 56.8649C46.4361 54.9694 45 53.0739 43.5638 51.1784C43.5638 50.7045 42.6063 50.2306 42.1276 50.2306C40.6914 50.2306 39.734 51.6523 40.6914 53.0739C42.1276 55.4432 43.5638 57.8126 45.4787 59.7081L36.3829 68.7117C35.4255 69.6595 35.4255 70.6072 36.3829 71.555C37.3404 72.5027 38.2978 72.5027 39.2553 71.555L47.8723 62.5514L52.1808 66.8162C53.1383 67.764 55.0532 67.2901 55.5319 65.8685C55.5319 64.9207 55.5319 64.4468 55.5319 63.4991L51.2234 59.2342C55.0531 54.9694 57.4468 50.7045 58.8829 45.9658H62.7127C63.6702 45.9658 64.6276 45.018 64.6276 44.0703C64.6276 43.1225 63.6702 42.1748 62.7127 42.1748H62.234Z" fill="#E0411B" stroke="#E0411B" stroke-width="0.2" stroke-miterlimit="10"/>
</svg>
