<svg width="180" height="263" viewBox="0 0 180 263" fill="none" xmlns="http://www.w3.org/2000/svg">
<g clip-path="url(#clip0_403_8668)">
<path d="M170.904 0H9.57447C4.30851 0 0 4.26486 0 9.47748V253.523C0 257.314 1.91489 260.631 5.26596 262.052C6.70213 262.526 7.65957 263 9.09575 263C11.4894 263 13.4043 262.052 15.3191 260.631L87.6064 199.975L164.681 260.631C167.553 263 171.383 263.474 174.734 261.578C178.085 260.157 180 256.84 180 253.049V9.47748C180 4.26486 175.691 0 170.426 0H170.904Z" fill="#E0411B"/>
<path d="M145.053 177.702C140.744 177.702 136.436 177.702 132.127 176.281C125.904 175.333 121.595 170.594 120.159 164.434C118.723 155.904 118.723 147.848 120.159 139.318C121.117 133.158 125.904 128.893 132.127 127.471C140.266 126.05 149.361 126.05 157.5 127.471C163.723 128.419 168.51 133.158 169.468 139.318C170.904 147.848 170.904 155.904 169.468 164.434C168.51 170.594 163.723 174.859 157.5 176.281C153.191 177.228 149.361 177.702 144.574 177.702H145.053ZM145.053 129.367C140.744 129.367 136.914 129.367 132.606 130.315C127.819 131.262 123.989 135.053 123.032 139.792C121.595 147.848 121.595 155.904 123.032 163.96C123.989 168.699 127.819 172.49 132.606 173.437C136.436 174.385 140.744 174.859 145.053 174.859C149.361 174.859 153.191 174.859 157.021 173.911C161.808 172.963 165.638 169.172 166.595 164.434C168.031 156.378 168.031 148.322 166.595 140.266C165.638 135.527 161.808 131.736 157.021 130.789C153.191 129.841 148.883 129.367 145.053 129.367Z" fill="white"/>
<path d="M145.052 137.423C143.616 137.423 142.659 138.371 142.18 139.318L134.52 159.221C134.042 160.643 134.52 161.59 136.435 161.59C138.35 161.59 137.871 161.117 138.35 160.169L140.265 155.43H149.839L151.754 160.169C151.754 161.117 152.712 161.59 153.669 161.59C155.105 161.59 156.063 160.169 155.584 159.221L147.925 139.318C147.925 138.371 146.488 137.423 145.052 137.423ZM141.701 151.639L145.052 142.635L148.403 151.639H141.701Z" fill="white"/>
<path d="M61 53.5479H75C86.4894 53.5479 93.3511 62.5515 93.3511 74.3983V131.263C93.3511 142.636 102.447 152.114 114.415 152.114H121.117" stroke="white" stroke-miterlimit="10"/>
<path d="M35.9707 79.2968C31.6622 79.2968 27.3537 79.2969 23.0452 77.8752C16.8218 76.9275 12.5133 72.1887 11.0771 66.0284C9.64096 57.4987 9.64096 49.4428 11.0771 40.9131C12.0346 34.7527 16.8218 30.4878 23.0452 29.0662C31.1835 27.6446 40.2793 27.6446 48.4176 29.0662C54.641 30.014 59.4282 34.7527 60.3856 40.9131C61.8218 49.4428 61.8218 57.4987 60.3856 66.0284C59.4282 72.1887 54.641 76.4536 48.4176 77.8752C44.1091 78.823 40.2793 79.2968 35.492 79.2968H35.9707ZM35.9707 30.9617C31.6622 30.9617 27.8324 30.9617 23.5239 31.9095C18.7367 32.8572 14.9069 36.6482 13.9495 41.3869C12.5133 49.4428 12.5133 57.4986 13.9495 65.5545C14.9069 70.2932 18.7367 74.0842 23.5239 75.032C27.3537 75.9797 31.6622 76.4536 35.9707 76.4536C40.2792 76.4536 44.109 76.4536 47.9388 75.5059C52.7261 74.5581 56.5558 70.7671 57.5133 66.0284C58.9495 57.9725 58.9495 49.9167 57.5133 41.8608C56.5558 37.1221 52.7261 33.3311 47.9388 32.3833C44.109 31.4356 39.8005 30.9617 35.9707 30.9617Z" fill="white"/>
<path d="M34.4714 38.0296C27.4 38.5382 22 44.6408 22 51.7605V61.5502C22 63.9658 24.0571 66 26.5 66H28.0429C29.7143 66 31 64.7286 31 63.0758V57.2275C31 55.5747 29.7143 54.3033 28.0429 54.3033H25.0857V51.7605C25.0857 46.1665 29.4571 41.2081 35.2429 41.0809C41.1571 40.9538 45.9143 45.5308 45.9143 51.3791V54.3033H42.9571C41.2857 54.3033 40 55.5747 40 57.2275V63.0758C40 64.7286 41.2857 66 42.9571 66H44.5C46.9429 66 49 63.9658 49 61.5502V51.252C49 43.6237 42.5714 37.5211 34.7286 38.0296H34.4714Z" fill="white"/>
</g>
<defs>
<clipPath id="clip0_403_8668">
<rect width="180" height="263" fill="white"/>
</clipPath>
</defs>
</svg>
