<svg width="180" height="264" viewBox="0 0 180 264" fill="none" xmlns="http://www.w3.org/2000/svg">
<g clip-path="url(#clip0_403_8730)">
<path d="M170.904 0H9.57447C4.30851 0 0 4.28108 0 9.51351V254.486C0 258.292 1.91489 261.622 5.26596 263.049C6.70213 263.524 7.65957 264 9.09574 264C11.4894 264 13.4043 263.049 15.3191 261.622L87.6064 200.735L164.681 261.622C167.553 264 171.383 264.476 174.734 262.573C178.085 261.146 180 257.816 180 254.011V9.51351C180 4.28108 175.691 0 170.426 0H170.904Z" fill="#E0411B"/>
<path d="M145.055 178.375C140.746 178.375 136.438 178.375 132.129 176.948C125.906 175.996 121.597 171.24 120.161 165.056C118.725 156.494 118.725 148.407 120.161 139.845C121.119 133.661 125.906 129.38 132.129 127.953C140.267 126.526 149.363 126.526 157.502 127.953C163.725 128.904 168.512 133.661 169.47 139.845C170.906 148.407 170.906 156.494 169.47 165.056C168.512 171.24 163.725 175.521 157.502 176.948C153.193 177.899 149.363 178.375 144.576 178.375H145.055ZM145.055 129.856C140.746 129.856 136.916 129.856 132.608 130.807C127.821 131.758 123.991 135.564 123.033 140.321C121.597 148.407 121.597 156.494 123.033 164.58C123.991 169.337 127.821 173.142 132.608 174.094C136.438 175.045 140.746 175.521 145.055 175.521C149.363 175.521 153.193 175.521 157.023 174.569C161.81 173.618 165.64 169.813 166.597 165.056C168.033 156.969 168.033 148.883 166.597 140.796C165.64 136.04 161.81 132.234 157.023 131.283C153.193 130.331 148.885 129.856 145.055 129.856Z" fill="white"/>
<path d="M145.056 137.938C143.62 137.938 142.663 138.889 142.184 139.84L134.524 159.819C134.046 161.246 134.524 162.197 136.439 162.197C138.354 162.197 137.875 161.721 138.354 160.77L140.269 156.013H149.843L151.758 160.77C151.758 161.721 152.716 162.197 153.673 162.197C155.109 162.197 156.067 160.77 155.588 159.819L147.928 139.84C147.928 138.889 146.492 137.938 145.056 137.938ZM141.705 152.208L145.056 143.17L148.407 152.208H141.705Z" fill="white"/>
<path fill-rule="evenodd" clip-rule="evenodd" d="M75.002 59.0288H61.002V48.4688H75.002C82.2615 48.4688 88.3523 51.381 92.5416 56.3602C96.6506 61.2442 98.6472 67.7594 98.6472 74.6785V131.76C98.6472 140.32 105.433 147.409 114.417 147.409H121.119V157.969H114.417C99.4651 157.969 88.059 146.032 88.059 131.76V74.6785C88.059 69.7056 86.6247 65.7561 84.4305 63.1481C82.3165 60.6355 79.2318 59.0288 75.002 59.0288Z" fill="white"/>
<path d="M35.9688 79.5935C31.6603 79.5935 27.3518 79.5935 23.0433 78.1664C16.8199 77.2151 12.5113 72.4583 11.0752 66.2745C9.639 57.7124 9.639 49.6259 11.0752 41.0637C12.0326 34.8799 16.8199 30.5989 23.0433 29.1718C31.1816 27.7448 40.2773 27.7448 48.4156 29.1718C54.639 30.1232 59.4262 34.8799 60.3837 41.0637C61.8199 49.6259 61.8199 57.7124 60.3837 66.2745C59.4262 72.4583 54.639 76.7394 48.4156 78.1664C44.1071 79.1178 40.2773 79.5935 35.4901 79.5935H35.9688ZM35.9688 31.0745C31.6603 31.0745 27.8305 31.0745 23.522 32.0259C18.7347 32.9772 14.905 36.7826 13.9475 41.5394C12.5113 49.6259 12.5113 57.7124 13.9475 65.7989C14.905 70.5556 18.7347 74.361 23.522 75.3124C27.3518 76.2637 31.6603 76.7394 35.9688 76.7394C40.2773 76.7394 44.1071 76.7394 47.9369 75.7881C52.7241 74.8367 56.5539 71.0313 57.5113 66.2745C58.9475 58.1881 58.9475 50.1016 57.5113 42.0151C56.5539 37.2583 52.7241 33.4529 47.9369 32.5016C44.1071 31.5502 39.7986 31.0745 35.9688 31.0745Z" fill="white"/>
<path fill-rule="evenodd" clip-rule="evenodd" d="M15.8828 68.6395L26.471 47.5195L31.7652 63.3595L37.0593 52.7995L47.6475 68.6395H15.8828Z" fill="white"/>
<path d="M52.9418 47.5202C52.9418 50.4363 50.5715 52.8002 47.6476 52.8002C44.7238 52.8002 42.3535 50.4363 42.3535 47.5202C42.3535 44.6042 44.7238 42.2402 47.6476 42.2402C50.5715 42.2402 52.9418 44.6042 52.9418 47.5202Z" fill="white"/>
</g>
<defs>
<clipPath id="clip0_403_8730">
<rect width="180" height="264" fill="white"/>
</clipPath>
</defs>
</svg>
