<svg width="181" height="264" viewBox="0 0 181 264" fill="none" xmlns="http://www.w3.org/2000/svg">
<path d="M144.198 101.795C144.198 100.368 145.147 98.9405 146.57 98.9405H179.785V9.51351C179.785 4.28108 175.515 0 170.295 0H10.8631C5.64356 0 1.37305 4.28108 1.37305 9.51351V99.4162H45.9762C47.3997 99.4162 48.3487 100.843 48.3487 102.27C48.3487 103.697 47.3997 105.124 45.9762 105.124H1.37305V254.962C1.37305 258.768 3.27105 262.097 6.59256 263.524C8.01606 264 8.96507 264.476 10.3886 264.476C12.7611 264.476 14.6591 263.524 16.5571 262.097L88.2067 201.211L164.601 262.097C167.448 264.476 171.244 264.951 174.566 263.049C177.887 261.622 179.785 258.292 179.785 254.486V104.649H146.57C145.147 104.649 144.198 103.222 144.198 101.795ZM144.672 33.2973C146.096 31.8703 148.468 31.8703 149.892 33.2973L158.907 42.3351C160.331 43.7622 160.331 46.1405 158.907 47.5676L151.79 54.7027L137.08 39.9568L144.198 32.8216L144.672 33.2973ZM136.131 104.649H62.1092C61.1602 104.649 60.6857 104.173 60.6857 103.222C60.6857 102.27 61.1602 101.795 62.1092 101.795H92.9518C92.0028 101.795 91.0538 100.843 91.0538 99.8919V88C91.0538 87.5243 91.0538 87.0487 91.5283 86.573L133.759 44.2378L148.468 58.9838L106.238 101.319C106.238 101.319 105.289 101.795 104.814 101.795H136.606C137.555 101.795 138.029 102.27 138.029 103.222C138.029 104.173 137.555 104.649 136.606 104.649H136.131Z" fill="#E0411B"/>
<path d="M105.762 101.319L147.993 58.9842L133.283 44.2383L91.0526 86.5734C91.0526 86.5734 90.5781 87.5248 90.5781 88.0004V99.8923C90.5781 100.844 91.5271 101.795 92.4761 101.795H104.339C104.813 101.795 105.288 101.795 105.762 101.319Z" fill="white"/>
<path d="M158.907 48.0437C160.331 46.6166 160.331 44.2383 158.907 42.8112L149.892 33.7734C148.468 32.3464 146.096 32.3464 144.672 33.7734L137.555 40.9085L152.264 55.6545L159.382 48.5193L158.907 48.0437Z" fill="white"/>
<path d="M136.131 101.795H62.1091C61.16 101.795 60.6855 102.271 60.6855 103.222C60.6855 104.173 61.16 104.649 62.1091 104.649H136.131C137.08 104.649 137.555 104.173 137.555 103.222C137.555 102.271 137.08 101.795 136.131 101.795Z" fill="white"/>
<path d="M45.9766 101.795V103.222V101.795Z" fill="white" stroke="white" stroke-miterlimit="10"/>
<path d="M48.3487 101.794C48.3487 100.367 47.3997 98.9404 45.9762 98.9404H1.37305V100.367H45.9762C46.4507 100.367 46.9252 100.843 46.9252 101.794C46.9252 102.746 46.4507 103.222 45.9762 103.222H1.37305V104.649H45.9762C47.3997 104.649 48.3487 103.222 48.3487 101.794Z" fill="white" stroke="white" stroke-miterlimit="10"/>
<path d="M45.9762 103.221C46.4507 103.221 46.9252 102.746 46.9252 101.794C46.9252 100.843 46.4507 100.367 45.9762 100.367H1.37305V103.221H45.9762Z" fill="white"/>
<path d="M45.9762 103.221V101.794M45.9762 103.221C46.4507 103.221 46.9252 102.746 46.9252 101.794C46.9252 100.843 46.4507 100.367 45.9762 100.367H1.37305V103.221H45.9762Z" stroke="white" stroke-miterlimit="10"/>
<path d="M146.57 103.222C146.095 103.222 145.621 102.746 145.621 101.794C145.621 100.843 146.095 100.367 146.57 100.367H179.785V98.9404H146.57C145.146 98.9404 144.197 100.367 144.197 101.794C144.197 103.222 145.146 104.649 146.57 104.649H179.785V103.222H146.57Z" fill="white" stroke="white" stroke-miterlimit="10"/>
<path d="M145.621 101.794C145.621 102.746 146.096 103.221 146.57 103.221H179.785V100.367H146.57C146.096 100.367 145.621 100.843 145.621 101.794Z" fill="white" stroke="white" stroke-miterlimit="10"/>
</svg>
