<svg width="179" height="264" viewBox="0 0 179 264" fill="none" xmlns="http://www.w3.org/2000/svg">
<g clip-path="url(#clip0_403_8750)">
<path d="M169.955 0H9.52128C4.28457 0 0 4.28108 0 9.51351V254.486C0 258.292 1.90426 261.622 5.2367 263.049C6.66489 263.524 7.61702 264 9.04521 264C11.4255 264 13.3298 263.049 15.234 261.622L87.1197 200.735L163.766 261.622C166.622 264 170.431 264.476 173.763 262.573C177.096 261.146 179 257.816 179 254.011V9.51351C179 4.28108 174.715 0 169.479 0H169.955Z" fill="#E0411B"/>
<path d="M86.1665 61.8374C59.983 63.7401 39.9883 86.5726 39.9883 113.21V149.837C39.9883 158.875 47.6053 166.486 56.6505 166.486H62.3633C68.5521 166.486 73.3128 161.729 73.3128 155.546V133.664C73.3128 127.481 68.5521 122.724 62.3633 122.724H51.4138V113.21C51.4138 92.2807 67.6 73.7293 89.0229 73.2537C110.922 72.778 128.536 89.9023 128.536 111.783V122.724H117.587C111.398 122.724 106.637 127.481 106.637 133.664V155.546C106.637 161.729 111.398 166.486 117.587 166.486H123.299C132.345 166.486 139.962 158.875 139.962 149.837V111.308C139.962 82.7672 116.159 59.9347 87.1186 61.8374H86.1665Z" fill="white"/>
</g>
<defs>
<clipPath id="clip0_403_8750">
<rect width="179" height="264" fill="white"/>
</clipPath>
</defs>
</svg>
