<svg width="172" height="254" viewBox="0 0 172 254" fill="none" xmlns="http://www.w3.org/2000/svg">
<g clip-path="url(#clip0_403_8717)">
<path d="M163.309 0H9.14894C4.11702 0 0 4.11892 0 9.15315V244.847C0 248.508 1.82979 251.712 5.03192 253.085C6.40426 253.542 7.31915 254 8.69149 254C10.9787 254 12.8085 253.085 14.6383 251.712L83.7128 193.132L157.362 251.712C160.106 254 163.766 254.458 166.968 252.627C170.17 251.254 172 248.05 172 244.389V9.15315C172 4.11892 167.883 0 162.851 0H163.309Z" fill="#E0411B"/>
<mask id="mask0_403_8717" style="mask-type:luminance" maskUnits="userSpaceOnUse" x="0" y="0" width="172" height="254">
<path d="M163.309 0H9.14894C4.11702 0 0 4.11892 0 9.15315V244.847C0 248.508 1.82979 251.712 5.03192 253.085C6.40426 253.542 7.31915 254 8.69149 254C10.9787 254 12.8085 253.085 14.6383 251.712L83.7128 193.132L157.362 251.712C160.106 254 163.766 254.458 166.968 252.627C170.17 251.254 172 248.05 172 244.389V9.15315C172 4.11892 167.883 0 162.851 0H163.309Z" fill="white"/>
</mask>
<g mask="url(#mask0_403_8717)">
<path d="M-52.6055 68.6484H29.735" stroke="white" stroke-width="10" stroke-miterlimit="10" stroke-linecap="round"/>
<path d="M52.6074 68.6484H80.0542" stroke="white" stroke-width="10" stroke-miterlimit="10" stroke-linecap="round"/>
<path d="M102.926 68.6484H176.117" stroke="white" stroke-width="10" stroke-miterlimit="10" stroke-linecap="round"/>
</g>
<path d="M106.127 120.364V139.585C106.127 141.874 105.67 144.162 104.298 145.993L101.553 150.112C99.2657 153.773 95.6061 155.604 91.4891 155.604H77.7657C73.6486 155.604 69.5316 153.773 66.7869 150.112L47.5742 124.483C46.2018 122.652 46.2018 119.906 47.5742 118.533C49.404 116.703 52.1486 116.703 53.9784 118.533L63.5848 126.771C64.0423 127.229 65.4146 126.771 65.4146 125.856V87.8702C65.4146 85.1242 67.7018 82.8359 70.4465 82.8359C73.1912 82.8359 73.1912 83.2936 74.1061 84.2089C75.021 85.1242 75.4784 86.4972 75.4784 87.8702V114.414C75.4784 111.668 77.7657 109.38 80.5104 109.38C83.255 109.38 83.255 109.838 84.1699 110.753C85.0848 111.668 85.5423 113.041 85.5423 114.414V117.618C85.5423 114.872 87.8295 112.584 90.5742 112.584C93.3189 112.584 93.3189 113.041 94.2338 113.957C95.1487 114.872 95.6061 116.245 95.6061 117.618V120.822C95.6061 118.076 97.8933 115.787 100.638 115.787C103.383 115.787 103.383 116.245 104.298 117.16C105.212 118.076 105.67 119.449 105.67 120.822L106.127 120.364Z" fill="white"/>
</g>
<defs>
<clipPath id="clip0_403_8717">
<rect width="172" height="254" fill="white"/>
</clipPath>
</defs>
</svg>
