<svg width="179" height="263" viewBox="0 0 179 263" fill="none" xmlns="http://www.w3.org/2000/svg">
<g clip-path="url(#clip0_403_8648)">
<path d="M169.955 0H9.52128C4.28457 0 0 4.26486 0 9.47748V253.523C0 257.314 1.90426 260.631 5.2367 262.052C6.66489 262.526 7.61702 263 9.04521 263C11.4255 263 13.3298 262.052 15.234 260.631L87.1197 199.975L163.766 260.631C166.622 263 170.431 263.474 173.763 261.578C177.096 260.157 179 256.84 179 253.049V9.47748C179 4.26486 174.715 0 169.479 0H169.955Z" fill="#E0411B"/>
<path d="M68.0765 90.0359C69.9808 90.0359 71.409 89.5621 72.3611 88.1404C73.3132 87.1927 73.7893 85.7711 73.7893 83.8756C73.7893 80.5584 74.2654 77.7152 75.6936 75.3458C77.1218 72.9765 78.55 71.081 81.4063 69.6593C84.2627 68.2377 87.1191 67.7639 90.9276 67.7639C94.7361 67.7639 96.6404 68.2377 98.5446 69.6593C100.449 71.081 102.353 72.5026 103.305 74.872C104.257 77.2413 105.21 79.1368 105.21 81.9801C105.21 84.8233 104.733 88.1404 103.305 90.5098C102.353 92.8792 100.925 94.7747 99.0207 96.6702C97.1164 98.5657 95.2122 100.461 93.3079 102.357C89.9755 105.2 87.5952 108.043 86.167 111.834C84.7388 115.625 83.7867 118.468 83.7867 121.785C83.7867 125.103 84.2627 124.629 85.6909 126.05C86.643 126.998 88.0712 127.946 89.9755 127.946C91.8797 127.946 93.3079 127.472 94.2601 126.05C95.2122 125.103 95.6883 123.681 95.6883 121.785C95.6883 119.89 95.6882 117.994 96.6404 115.625C97.5925 113.256 99.0207 110.886 100.925 109.465C103.781 107.095 106.638 104.726 109.018 101.883C111.398 99.5134 113.303 96.6702 114.731 93.353C116.159 90.0359 116.635 86.7188 116.635 82.4539C116.635 78.1891 115.683 72.9765 113.303 69.6593C110.922 65.8684 108.066 63.0251 104.257 61.1296C100.449 59.2341 96.1643 57.8125 90.9276 57.8125C85.6909 57.8125 80.4542 58.7602 76.1696 61.1296C71.8851 63.499 68.5526 66.8161 66.1723 70.6071C63.792 74.872 62.8398 79.1368 62.8398 84.8233C62.8398 90.5098 63.3159 87.6665 64.7441 89.0882C65.6962 90.0359 67.1244 90.9837 69.0287 90.9837L68.0765 90.0359Z" fill="white"/>
<path d="M89.4993 140.267C87.119 140.267 85.6908 141.214 83.7866 142.636C82.3584 144.058 81.4062 145.953 81.4062 148.322C81.4062 150.692 82.3584 152.113 83.7866 154.009C85.2148 155.431 87.119 156.378 89.4993 156.378C91.8796 156.378 93.7839 155.431 95.2121 154.009C96.6403 152.587 97.5924 150.692 97.5924 148.322C97.5924 145.953 96.6403 144.058 95.2121 142.636C93.7839 141.214 91.8796 140.267 89.4993 140.267Z" fill="white"/>
</g>
<defs>
<clipPath id="clip0_403_8648">
<rect width="179" height="263" fill="white"/>
</clipPath>
</defs>
</svg>
