<svg width="180" height="264" viewBox="0 0 180 264" fill="none" xmlns="http://www.w3.org/2000/svg">
<g clip-path="url(#clip0_403_8630)">
<path d="M170.904 0H9.57447C4.30851 0 0 4.28108 0 9.51351V254.486C0 258.292 1.91489 261.622 5.26596 263.049C6.70213 263.524 7.65957 264 9.09575 264C11.4894 264 13.4043 263.049 15.3191 261.622L87.6064 200.735L164.681 261.622C167.553 264 171.383 264.476 174.734 262.573C178.085 261.146 180 257.816 180 254.011V9.51351C180 4.28108 175.691 0 170.426 0H170.904Z" fill="#E0411B"/>
<path d="M141.223 117.492C128.777 117.492 118.723 107.503 118.723 95.1354C118.723 82.7678 128.777 72.7786 141.223 72.7786C153.67 72.7786 141.223 72.7786 141.702 72.7786V66.1191C141.702 66.1191 141.702 66.1191 141.223 66.1191C125.426 66.1191 112.5 78.9624 112.5 94.6597C112.5 110.357 125.426 123.2 141.223 123.2C157.021 123.2 141.223 123.2 141.702 123.2V117.016C141.702 117.016 141.702 117.016 141.223 117.016V117.492Z" fill="white"/>
<path d="M156.544 96.0866C156.544 95.1352 156.544 94.6596 156.544 94.1839C156.544 94.1839 152.235 82.7677 141.225 82.292V88.4758C146.491 88.4758 148.884 93.2325 150.32 95.1352C149.363 97.0379 146.491 101.319 141.225 101.795V107.978C152.235 107.978 156.065 96.5623 156.544 96.0866Z" fill="white"/>
<path d="M112.501 95.135C112.501 79.4377 125.427 66.5945 141.224 66.5945C157.022 66.5945 141.224 66.5945 141.703 66.5945V53.7512C141.703 52.7999 141.224 52.3242 140.746 52.3242C121.597 52.3242 101.49 55.6539 91.4372 61.8377C90.001 62.7891 88.5649 63.7404 87.6074 65.1675V152.216C90.4798 145.557 111.065 138.897 140.267 138.897C169.469 138.897 141.224 137.946 141.224 137.47V124.151C141.224 124.151 141.224 124.151 140.746 124.151C124.948 124.151 112.022 111.308 112.022 95.6107L112.501 95.135Z" fill="white"/>
<path d="M76.5962 61.8377C66.543 55.6539 46.4366 52.3242 27.2876 52.3242C8.13871 52.3242 26.3302 53.2756 26.3302 53.7512V136.519C26.3302 137.47 26.8089 137.946 27.2876 137.946C56.4898 137.946 77.0749 144.605 79.9472 151.265V64.6918C78.9898 63.7404 78.0323 62.7891 76.5962 61.8377Z" fill="white"/>
<path d="M169.948 95.1353C169.948 79.438 157.501 67.0704 141.703 66.5947V73.2542C153.671 73.2542 163.724 83.2434 163.724 95.1353C163.724 107.027 154.15 117.016 141.703 117.492V123.676C157.501 123.676 169.948 110.833 169.948 95.1353Z" fill="white"/>
<path d="M141.224 101.795C135.479 101.795 133.086 97.5136 131.649 95.1352C132.607 93.2325 135.479 88.4758 140.745 88.4758C146.011 88.4758 140.745 88.4758 141.224 88.4758V82.292C141.224 82.292 141.224 82.292 140.745 82.292C129.256 82.292 124.947 93.7082 124.947 94.1839C124.947 95.1352 124.947 95.6109 124.947 96.0866C124.947 96.0866 129.256 107.978 140.745 107.978C152.234 107.978 140.745 107.978 141.224 107.978V101.795Z" fill="white"/>
<path d="M144.097 95.1354C144.097 93.7084 143.139 92.2813 141.703 91.8057V97.9895C143.139 97.9895 144.097 96.5624 144.097 94.6597V95.1354Z" fill="white"/>
<path d="M141.224 91.8057C139.309 91.8057 137.873 93.2327 137.873 95.1354C137.873 97.0381 139.309 98.4651 141.224 98.4651C143.139 98.4651 141.224 98.4651 141.703 98.4651V92.2813C141.703 92.2813 141.703 92.2813 141.224 92.2813V91.8057Z" fill="white"/>
</g>
<defs>
<clipPath id="clip0_403_8630">
<rect width="180" height="264" fill="white"/>
</clipPath>
</defs>
</svg>
