<svg width="180" height="264" viewBox="0 0 180 264" fill="none" xmlns="http://www.w3.org/2000/svg">
<g clip-path="url(#clip0_403_8709)">
<path d="M170.904 0H9.57447C4.30851 0 0 4.28108 0 9.51351V254.486C0 258.292 1.91489 261.622 5.26596 263.049C6.70213 263.524 7.65957 264 9.09575 264C11.4894 264 13.4043 263.049 15.3191 261.622L87.6064 200.735L164.681 261.622C167.553 264 171.383 264.476 174.734 262.573C178.085 261.146 180 257.816 180 254.011V9.51351C180 4.28108 175.691 0 170.426 0H170.904Z" fill="#E0411B"/>
<path d="M50.7446 101.319C50.7446 98.9407 51.2233 96.0867 52.1808 93.7083L53.1382 95.611L58.8829 92.7569L54.5744 83.7191C53.6169 81.8164 51.702 81.3407 49.7871 82.2921L40.6914 87.5245L44.0425 93.2326L45.4786 92.2813C44.5212 95.1353 44.0425 98.4651 44.0425 101.319C44.0425 125.579 64.1489 145.557 88.5638 145.557V138.897C67.4999 138.897 50.7446 121.773 50.7446 100.843V101.319Z" fill="white"/>
<path d="M124.947 90.3785C125.904 94.1839 126.383 97.5136 126.383 101.319C126.383 115.114 117.287 128.433 104.362 135.092L105.319 132.238L99.0958 130.335L96.2234 139.373C95.7447 140.8 96.2234 142.703 98.1383 143.178L107.234 146.508L109.628 140.324H108.192C113.936 136.519 119.202 132.238 123.511 127.006C129.734 118.919 133.085 109.881 133.085 100.368C133.085 96.0866 132.606 91.8055 131.17 87.5244L124.947 89.4271V90.3785Z" fill="white"/>
<path d="M114.414 76.1081V82.7675H124.467C125.903 82.7675 127.34 81.8162 127.818 79.9135L129.254 69.9243L123.031 68.9729V71.827C113.935 62.7892 101.01 57.0811 88.563 57.0811C76.1162 57.0811 64.1481 62.3135 56.0098 71.3513L60.797 75.6324C67.9779 68.0216 78.031 63.2648 88.563 63.2648C99.0949 63.2648 110.106 68.0216 117.765 76.1081H114.893H114.414Z" fill="white"/>
</g>
<defs>
<clipPath id="clip0_403_8709">
<rect width="180" height="264" fill="white"/>
</clipPath>
</defs>
</svg>
