<svg width="179" height="264" viewBox="0 0 179 264" fill="none" xmlns="http://www.w3.org/2000/svg">
<g clip-path="url(#clip0_403_8622)">
<path d="M169.955 0H9.52128C4.28457 0 0 4.28108 0 9.51351V254.486C0 258.292 1.90426 261.622 5.2367 263.049C6.66489 263.524 7.61702 264 9.04521 264C11.4255 264 13.3298 263.049 15.234 261.622L87.1197 200.735L163.766 261.622C166.622 264 170.431 264.476 173.763 262.573C177.096 261.146 179 257.816 179 254.011V9.51351C179 4.28108 174.715 0 169.479 0H169.955Z" fill="#E0411B"/>
<path d="M112.35 45.6646C113.779 46.616 113.779 48.5187 112.35 49.47L102.353 56.6051C100.925 57.5565 98.5446 56.6051 98.5446 54.7024V50.897H79.026C73.7893 50.897 69.5047 55.1781 69.5047 60.4105C69.5047 65.643 68.0765 63.7403 66.1723 63.7403C64.268 63.7403 62.8398 62.3133 62.8398 60.4105C62.8398 51.3727 69.9808 44.2376 79.026 44.2376H98.5446V40.4322C98.5446 38.5295 100.449 37.5781 102.353 38.5295L112.35 45.6646Z" fill="white"/>
<path d="M97.1163 74.205C102.353 74.205 106.638 69.9239 106.638 64.6915C106.638 59.459 108.066 61.3617 109.97 61.3617C111.874 61.3617 113.302 62.7888 113.302 64.6915C113.302 73.7293 106.162 80.8644 97.1163 80.8644H77.5977V84.6698C77.5977 86.5725 75.6934 87.5239 73.7892 86.5725L63.7918 79.4374C62.3637 78.4861 62.3637 76.5834 63.7918 75.632L73.7892 68.4969C75.2174 67.5455 77.5977 68.4969 77.5977 70.3996V74.205H97.1163Z" fill="white"/>
<path fill-rule="evenodd" clip-rule="evenodd" d="M149.485 125.103C149.485 124.627 149.485 124.152 149.485 123.676C149.485 123.676 149.485 123.2 149.009 122.725C149.009 122.725 149.009 122.725 148.533 122.249L109.971 97.5139C104.735 94.1842 98.5458 94.1842 93.3091 97.5139C90.9288 98.9409 87.5964 98.9409 85.2161 97.5139C79.9793 94.1842 73.7905 94.1842 68.5538 97.5139C56.1762 105.125 29.5166 122.249 29.5166 122.249C29.5166 122.249 28.5645 122.725 28.5645 123.2C28.5645 123.2 28.5645 123.676 28.5645 124.152C28.5645 124.627 28.5645 125.579 28.5645 126.054C28.5645 126.53 29.0405 127.006 29.5166 127.481L57.1283 155.071C63.7932 161.73 72.3623 165.06 81.8836 165.06H97.1176C106.163 165.06 115.208 161.254 121.873 155.071L149.485 127.481C149.485 127.481 149.485 127.481 149.485 127.006V126.054C149.485 125.579 149.485 125.103 149.485 124.627V125.103ZM131.394 127.481L104.259 139.849C100.926 141.276 97.1177 142.227 93.3091 142.227H81.8836C78.0751 142.227 74.2666 141.276 70.9341 139.849L43.7985 127.481L70.9341 122.725C73.3145 122.725 75.6948 122.725 78.0751 123.2H79.9793C84.74 125.103 89.9767 125.103 94.7373 123.676H96.6416C99.0219 122.249 101.402 122.249 103.783 122.725L130.918 127.481H131.394Z" fill="white"/>
</g>
<defs>
<clipPath id="clip0_403_8622">
<rect width="179" height="264" fill="white"/>
</clipPath>
</defs>
</svg>
