<svg width="180" height="263" viewBox="0 0 180 263" fill="none" xmlns="http://www.w3.org/2000/svg">
<g clip-path="url(#clip0_403_8643)">
<path d="M170.904 0H9.57447C4.30851 0 0 4.26486 0 9.47748V253.523C0 257.314 1.91489 260.631 5.26596 262.052C6.70213 262.526 7.65957 263 9.09575 263C11.4894 263 13.4043 262.052 15.3191 260.631L87.6064 199.975L164.681 260.631C167.553 263 171.383 263.474 174.734 261.578C178.085 260.157 180 256.84 180 253.049V9.47748C180 4.26486 175.691 0 170.426 0H170.904Z" fill="#E0411B"/>
<path d="M63.1924 156.379C61.2775 156.379 59.8413 155.431 59.3626 154.009C58.4052 152.588 58.4052 150.692 59.3626 149.271L85.6924 86.7193C86.6499 84.3499 88.086 83.4022 90.4796 83.4022C92.8733 83.4022 94.3094 84.3499 95.2669 86.7193L122.075 149.745C122.554 151.64 122.554 153.062 122.075 154.483C121.118 155.905 119.682 156.379 117.767 156.379C115.852 156.379 115.852 156.379 114.895 155.431C113.937 154.957 113.458 154.009 112.98 153.062L89.5222 95.7229H92.3945L68.4584 153.062C68.4584 154.009 67.5009 154.957 66.5435 155.431C65.586 155.905 64.6286 156.379 64.1499 156.379H63.1924ZM68.4584 140.267L72.2882 132.211H109.15L112.98 140.267H68.4584ZM90.4796 75.3463C89.0435 75.3463 88.086 75.3463 87.1286 73.9247C86.1711 72.9769 85.6924 72.0292 85.6924 70.6076C85.6924 69.186 85.6924 68.2382 86.6499 67.2905L95.7456 58.2869C96.703 57.3391 97.6605 56.8652 99.0967 56.8652C100.533 56.8652 101.49 56.8652 102.448 58.2869C103.405 59.2346 103.884 60.1824 103.884 61.604C103.884 63.0256 103.884 63.0256 103.884 63.4995C103.884 63.9733 103.405 64.4472 102.926 64.9211L93.8307 73.9247C92.8733 74.8724 91.9158 75.3463 90.4796 75.3463Z" fill="white"/>
</g>
<defs>
<clipPath id="clip0_403_8643">
<rect width="180" height="263" fill="white"/>
</clipPath>
</defs>
</svg>
