<svg width="180" height="264" viewBox="0 0 180 264" fill="none" xmlns="http://www.w3.org/2000/svg">
<g clip-path="url(#clip0_403_8615)">
<path d="M170.904 0H9.57447C4.30851 0 0 4.28108 0 9.51351V254.486C0 258.292 1.91489 261.622 5.26596 263.049C6.70213 263.524 7.65957 264 9.09575 264C11.4894 264 13.4043 263.049 15.3191 261.622L87.6064 200.735L164.681 261.622C167.553 264 171.383 264.476 174.734 262.573C178.085 261.146 180 257.816 180 254.011V9.51351C180 4.28108 175.691 0 170.426 0H170.904Z" fill="#E0411B"/>
<path d="M77.5539 103.222C89.0432 103.222 98.139 94.1837 98.139 82.7675C98.139 71.3513 89.0432 62.3135 77.5539 62.3135C66.0645 62.3135 56.9688 71.3513 56.9688 82.7675C56.9688 94.1837 66.0645 103.222 77.5539 103.222Z" fill="white"/>
<path d="M77.5532 113.211C63.6703 113.211 35.9043 120.346 35.9043 133.665V138.897C35.9043 141.751 38.2979 144.13 41.1703 144.13H113.936C116.809 144.13 119.202 141.751 119.202 138.897V133.665C119.202 119.87 91.4362 113.211 77.5532 113.211ZM111.064 76.1081C112.5 80.3891 112.5 84.6702 111.064 88.9513C110.106 91.3297 110.585 94.1837 112.5 96.0864C115.372 99.4162 120.638 98.4648 122.553 94.6594C126.383 87.0486 126.383 78.4864 122.553 70.3999C120.638 66.5945 115.372 65.6432 112.5 68.9729C110.585 70.8756 110.106 73.7297 111.543 76.1081H111.064ZM130.692 50.8972C128.777 52.7999 128.298 56.1297 130.213 58.5081C140.266 72.7783 140.266 91.3297 130.213 106.076C128.777 108.454 128.777 111.784 131.17 113.686C133.564 116.54 137.872 116.065 140.266 113.686C154.628 95.6108 154.628 70.3999 140.266 51.8486C137.872 48.9945 133.564 48.9945 131.17 51.3729L130.692 50.8972Z" fill="white"/>
</g>
<defs>
<clipPath id="clip0_403_8615">
<rect width="180" height="264" fill="white"/>
</clipPath>
</defs>
</svg>
