<svg width="179" height="264" viewBox="0 0 179 264" fill="none" xmlns="http://www.w3.org/2000/svg">
<g clip-path="url(#clip0_403_8704)">
<path d="M169.955 0H9.52128C4.28457 0 0 4.28108 0 9.51351V254.486C0 258.292 1.90426 261.622 5.2367 263.049C6.66489 263.524 7.61702 264 9.04521 264C11.4255 264 13.3298 263.049 15.234 261.622L87.1197 200.735L163.766 261.622C166.622 264 170.431 264.476 173.763 262.573C177.096 261.146 179 257.816 179 254.011V9.51351C179 4.28108 174.715 0 169.479 0H169.955Z" fill="#E0411B"/>
<path d="M142.343 90.3784L105.686 85.1459L89.4998 51.8486L73.3137 85.1459L37.1328 90.3784L63.3163 116.065L57.1275 152.216L89.4998 135.092L122.348 152.216L116.159 116.065L142.343 90.3784Z" fill="white"/>
</g>
<defs>
<clipPath id="clip0_403_8704">
<rect width="179" height="264" fill="white"/>
</clipPath>
</defs>
</svg>
