<svg width="180" height="264" viewBox="0 0 180 264" fill="none" xmlns="http://www.w3.org/2000/svg">
<path d="M170.904 0H9.57447C4.30851 0 0 4.28108 0 9.51351V254.486C0 258.292 1.91489 261.622 5.26596 263.049C6.70213 263.524 7.65957 264 9.09575 264C11.4894 264 13.4043 263.049 15.3191 261.622L87.6064 200.735L164.681 261.622C167.553 264 171.383 264.476 174.734 262.573C178.085 261.146 180 257.816 180 254.011V9.51351C180 4.28108 175.691 0 170.426 0H170.904Z" fill="#E0411B"/>
<path d="M71.3301 117.967V131.286C71.3301 132.713 72.2875 133.664 73.7237 133.664H87.128C87.6067 133.664 88.0854 133.664 88.5641 133.189L136.915 85.1455L120.16 68.4968L71.8088 116.54C71.8088 116.54 71.3301 117.491 71.3301 117.967ZM149.362 72.3022C151.277 70.3995 151.277 68.0212 149.362 66.1185L138.83 55.6536C136.915 53.7509 134.522 53.7509 132.607 55.6536L124.468 63.7401L141.224 80.3887L149.362 72.3022Z" fill="white"/>
<path d="M144.096 137.945H24.8936C23.4574 137.945 22.5 136.994 22.5 135.567C22.5 134.14 23.4574 133.188 24.8936 133.188H144.096C145.532 133.188 146.489 134.14 146.489 135.567C146.489 136.994 145.532 137.945 144.096 137.945Z" fill="white"/>
</svg>
